<svg xmlns="http://www.w3.org/2000/svg" height="800" width="1200" viewBox="-106.1763 -44.80575 920.1946 268.8345"><path d="M58.485 134.183c-15.827-2.074-33.984-12.945-44.193-26.459C4.535 94.809.027 82.144 0 67.579c-.023-12.938 3.772-22.53 13.397-33.856l2.55-3-2.128 6c-1.623 4.577-2.131 8.373-2.142 16-.017 12.763 3.145 23.099 10.374 33.907 12.982 19.41 33.424 31.214 55.934 32.298 17.219.83 29.932-3.24 40.687-13.026l5.692-5.179-2.339 4.189c-12.485 22.358-35.475 32.95-63.54 29.271zm16.482-39.935c-6.188-1.577-12.314-4.65-18.715-9.385-7.129-5.273-11.189-10.37-15.643-19.64-2.915-6.065-3.124-7.235-3.124-17.5 0-10.56.132-11.24 3.295-17 1.813-3.3 4.398-7.35 5.744-9l2.45-3-2.096 5.5c-1.707 4.481-2.02 7.106-1.69 14.16.354 7.576.884 9.631 4.227 16.396 11.873 24.023 41.063 35.89 63.015 25.617 3.497-1.636 8.18-4.797 10.406-7.023 4.594-4.594 4.394-3.05-.593 4.574-3.95 6.04-11.076 11.62-18.538 14.52-5.863 2.278-22.695 3.321-28.738 1.78zm12.018-36.593c-6.821-3.162-12.367-8.401-15.804-14.932-3.527-6.7-3.717-16.95-.43-23.182 2.839-5.382 4.41-6.42 3.17-2.093-2.403 8.377.851 17.786 8.952 25.887 6.715 6.715 14.123 9.888 23.085 9.888 6.983 0 10.493-1.17 14.432-4.813 3.15-2.913 2.732-1.621-1.185 3.671-5.947 8.034-21.213 10.675-32.22 5.574zM438.65 177.973c.012-.687.912-5.277 2-10.199s1.978-9.535 1.978-10.25v-1.3h-2.813l.523-2 .523-2h2.74l1.43-3.42 1.428-3.42 2.143-1.147 2.143-1.147 2.942.646 2.941.646-.015 1.17c-.008.645-.346 1.689-.75 2.32l-.735 1.15-2.421.35-2.422.351-.412 1.25-.411 1.25h5.38l-.607 1.582c-.334.87-.607 1.77-.607 2 0 .23-1.094.418-2.432.418h-2.433l-.542 1.75c-.298.963-1.2 4.91-2.006 8.774-.805 3.863-1.93 8.25-2.5 9.75l-1.037 2.726h-4.05l.022-1.25zm-123.923-15.449c1.046-4.785 1.901-8.997 1.901-9.36v-.66l5.709-.59 5.708-.59 1.042.827 1.041.825 2-.806c1.1-.443 3.002-.838 4.227-.876l2.227-.07 1.605 2.449 1.604 2.448-1.15 5.802c-.633 3.19-1.375 6.588-1.65 7.55l-.498 1.75h-4.523l.891-6.652.892-6.652-1.313-.832c-.721-.457-1.762-.688-2.312-.514l-1 .316-.301 1.918c-.166 1.054-.76 4.28-1.321 7.167l-1.02 5.25h-4.896l.465-2.25c.255-1.238.733-4.332 1.061-6.877l.598-4.626-1.713-.658-1.713-.657-.75 1.215c-.414.668-1.288 4.058-1.944 7.534l-1.192 6.319h-5.576l1.901-8.7zm30.101 7.499l-1.2-1.2.004-4.55.004-4.55 1.949-3.195 1.948-3.196 3.957-1.185 3.958-1.186 2.52.633c1.387.348 3.227 1.339 4.09 2.202l1.57 1.57v5.921l-1.394 3.338-1.394 3.337-2.328 1.63-2.328 1.631h-10.155l-1.2-1.2z" fill="#74b042"/><path d="M355.457 165.473l2.05-1.75.176-2c.097-1.1.124-2.532.06-3.182l-.115-1.183-1.962-.623-1.962-.622-1.957 1.047-1.956 1.047-.7 3.185-.7 3.185 1.81 1.323c2.338 1.71 2.797 1.672 5.256-.427z" fill="#fff"/><path d="M365.664 168.517c.02-1.536 1.032-7.519 2.25-13.294l2.214-10.5 2.394-.338 2.393-.338-.544 4.055-.544 4.056 4.298-.59 4.297-.588 1.635 2.495 1.635 2.495-.668 4.182-.669 4.18-2.149 3.196-2.149 3.195-7.214.294-7.215.294.036-2.794z" fill="#74b042"/><path d="M378.653 163.658c.536-1.41.975-3.427.975-4.48v-1.916l-2.573-.646-2.573-.646-.876.877c-.481.482-1.181 2.789-1.554 5.126l-.68 4.25h6.306z" fill="#fff"/><path d="M388.921 164.01l.931-7.212-1.112-.37-1.112-.371v-3.834h9.135l-.499 1.75c-.274.963-1.01 4.45-1.636 7.75-.626 3.3-1.362 6.788-1.636 7.75l-.499 1.75h-4.502zm10.542-15.5l1.063.655 1.187.75-1.469 6.907c-.81 3.8-1.687 8.593-1.968 10.656l-.532 3.75h4.688l1.687-7.75c.925-4.263 2.262-10.338 2.969-13.5l1.281-5.75h-8.75l-.03 1.25c-.034 1.089-.195 1.916-.126 3.031zm-.942-1.407l.036-2.125-1.031-1.75h-3.657l-1.218 1.469-1.25 1.5.625 1.656.625 1.625 3.343-.531 1.813-.322zm10.857 23.04l-1.75-1.019v-7.965l1.421-3.401 1.422-3.402 3.029-1.566 3.029-1.567h5.654l2.223 1.557 2.222 1.557v8.886h-13v3h11v1.3c0 .715-.54 1.84-1.2 2.5l-1.2 1.2-5.55-.03-5.55-.03-1.75-1.019z" fill="#74b042"/><path d="M420.951 157.622l-.537-1.399h-1.311c-.721 0-2.023.274-2.893.607l-1.582.607v2.385l3.43-.4 3.43-.401z" fill="#fff"/><path d="M454.944 161.898l1.968-9.424 5.567-.575 5.566-.574 1.292 1.072 1.291 1.071v6.755h-5.937l.526-1.37.526-1.371-1.7-.653c-2.25-.864-2.214-.925-4.195 7.008l-1.72 6.886-2.576.3-2.576.3zm17.888 8.13l-1.204-1.205v-7.664l1.417-3.39 1.416-3.39 2.613-1.712 2.613-1.712 5.67.666c3.117.367 5.849.847 6.069 1.067.22.22-.457 4.368-1.505 9.218l-1.904 8.817-6.99.255-6.99.254z" fill="#74b042"/><path d="M484.462 161.98l1.078-4.245-.883-.883-.882-.882-2.496.626-2.495.627-1.15 3.48-1.148 3.481.63 1.02.63 1.02h5.639z" fill="#fff"/><path d="M493.955 161.849l1.957-9.375 5.605-.579 5.605-.578.801.801.802.802 3.907-1.043 3.908-1.043 2.146 1.942 2.146 1.942-.603 4.4c-.331 2.42-1.07 6.133-1.64 8.252l-1.038 3.853h-4.181l.677-6.874.678-6.875-1.719-.659-1.718-.66-.718 1.163c-.395.639-1.01 3.36-1.366 6.046-.356 2.686-.905 5.553-1.219 6.372l-.57 1.487h-4.428l.747-5.25c.412-2.887.781-5.989.821-6.893l.073-1.643-1.67-.64-1.67-.641-.65 1.052c-.358.578-1.23 3.968-1.938 7.533l-1.289 6.482h-5.414zm29.873 8.174l-1.2-1.2.002-4.05.002-4.05 1.749-3.486 1.748-3.486 2.5-1.249 2.5-1.25 3.028-.014 3.027-.015 2.275 1.594 2.276 1.593-.303 4.157-.304 4.156-6.267.5-6.267.5.005 1 .005 1 5.512.3c5.95.323 6.022.377 4.476 3.266l-1.034 1.934h-12.53l-1.2-1.2z" fill="#74b042"/><path d="M535.628 157.543v-1.452l-2.741.316-2.742.316-.3 1.583-.3 1.583 3.042-.446 3.041-.447z" fill="#fff"/><path d="M544.84 162.033l.288-9.31 2.843-.325 2.842-.325-.342 5.982-.343 5.983.57-.355c.313-.195 1.419-2.853 2.457-5.907l1.887-5.553h7.586l.056 6.75.055 6.75 2.558-6.75 2.558-6.75h4.773v1.056c0 .58-1.65 4.856-3.667 9.5l-3.668 8.444h-7.665l-.07-6.25-.07-6.25-2.314 6-2.313 6-4.155.31-4.154.31.288-9.31zm29.36 7.619l-1.572-1.571v-6.79l1.67-3.5 1.668-3.5 3.463-1.643 3.463-1.643 3.615.586 3.615.587 1.253 1.714 1.253 1.714v6.749l-1.125 2.184c-.619 1.202-2.047 3.197-3.174 4.434l-2.05 2.25h-10.508z" fill="#74b042"/><path d="M584.291 165.747l2.109-1.477.657-2.619.657-2.619-1.165-1.404-1.166-1.405h-3.445l-1.577 1.75c-.867.963-1.875 2.944-2.239 4.404l-.662 2.653 1.834 1.066c2.394 1.392 2.524 1.383 4.997-.35z" fill="#fff"/><path d="M593.992 169.473c.274-.962 1.236-5.177 2.138-9.367l1.64-7.617 5.638-.582 5.637-.582 1.292 1.072 1.291 1.071v1.796c0 .988-.273 2.508-.607 3.378l-.607 1.581h-4.553l-.55-2.105-.55-2.105-1.317.438-1.316.438-.313 1.917c-.172 1.055-.972 4.28-1.778 7.167l-1.465 5.25h-5.079zm17.636.58c0-.721 1.193-6.827 2.65-13.57l2.65-12.26h4.922l-.584 3.25a379.272 379.272 0 00-1.253 7.589l-.669 4.338 2.392-.338 2.392-.339 1.833-3.75 1.832-3.75h3.835v5.1l-1.479 2.86c-.813 1.573-2.05 3.07-2.75 3.325l-1.27.465 1.25 1.325 1.25 1.325v5.6l-2.25-.01-2.25-.01-1.717-4.084-1.716-4.084-1.215.405-1.215.405-1.153 3.44-1.153 3.439-2.166.32-2.166.319v-1.31zm20.181-1.08l.32-2.25 2.365-.334 2.365-.335.917.918.918.917-.64 1.667-.64 1.667h-5.924z" fill="#74b042"/><path d="M140.505 158.768l-.624-.625 2.521-10.21c1.387-5.615 2.96-10.772 3.496-11.46l.975-1.25h10.846l2.366-2.365c1.301-1.302 3.253-4.114 4.339-6.25l1.973-3.885 6.646-30.541c3.656-16.798 7.002-31.873 7.436-33.5l.79-2.959 13.18-.279 13.18-.279v1.71c0 .941-3.395 17.357-7.544 36.48l-7.542 34.77-2.483 7.299-2.482 7.3-3.446 5.19-3.446 5.191-4.779 2.81-4.779 2.808-15 .335-15 .334zm325.623-37.17c-14.963-2.947-17.049-3.763-22.335-8.737-4.247-3.995-5.647-6.734-7.136-13.955l-1.199-5.818 1.128-8.682 1.128-8.683 2.468-9.38 2.468-9.379 2.988-6.26 2.988-6.262 4.617-5.135 4.617-5.135 4.214-2.47c2.318-1.358 6.878-3.45 10.134-4.65l5.92-2.182 14.5-.073 14.5-.074 5.41 1.884 5.41 1.883 4.29 4.29 4.29 4.29 1.684 5.794 1.684 5.793-.6 9.033-.6 9.033-1.808 7.5-1.807 7.5-29.892.266-29.892.265-1.335 1.107-1.334 1.107v2.33c0 1.283.538 3.511 1.195 4.953l1.195 2.622 3.055 1.675 3.055 1.675 24.25.329 24.25.328-.04 2.172c-.02 1.194-.873 6.165-1.893 11.047l-1.855 8.876-1.356.859-1.356.859-22.5-.1c-12.375-.056-23.4-.279-24.5-.495zm36.5-63.44v-4.066l-1.03-1.924-1.03-1.924-2.92-1.51-2.92-1.51h-12.97l-2.815 1.063c-4.808 1.817-11.315 9.227-11.315 12.887v1.05h35zm-252 62.375c-1.375-.23-4.75-1.112-7.5-1.96l-5-1.541-5.151-3.458-5.151-3.458-2.647-3.819c-1.455-2.1-3.58-6.238-4.722-9.196l-2.076-5.378-.492-9-.492-9 1.68-9 1.68-9 2.996-9 2.995-9 3.605-6.5 3.605-6.5 7.706-7.742 7.706-7.742 6.38-2.974c3.508-1.636 9.285-3.715 12.838-4.62L275.048 0l12.54.457 12.54.457 5.74 2.222 5.739 2.223 4.76 3.266 4.761 3.266 3.707 4.875 3.706 4.876 2.294 6.04 2.293 6.041-.054 10.5-.054 10.5-2.746 9c-1.51 4.95-4.524 13.873-6.696 19.828-2.172 5.955-3.95 11.468-3.95 12.25v1.422h5.834c3.208 0 6.076.244 6.374.542l.542.541-2.799 10.43c-1.539 5.737-3.084 10.894-3.433 11.46l-.636 1.027-36.19-.136c-19.906-.075-37.317-.324-38.692-.554zm43.909-31.06c1.096-3.712 3.843-13.275 6.104-21.25l4.111-14.5-.312-8.58-.312-8.58-2.884-3.778-2.884-3.78-4.116-1.869-4.116-1.869-8-.012-8-.012-5 2.334-5 2.333-3.862 4.283-3.861 4.284-2.954 6.312-2.954 6.312-1.921 9.311-1.922 9.312.011 4.5c.006 2.475.42 6.265.92 8.422l.91 3.923 1.875 2.577 1.875 2.578 4.404 2.25 4.403 2.25h31.491l1.994-6.75zm70.091 31.06c-1.375-.23-4.554-1.078-7.066-1.883l-4.565-1.465-3.642-3.73-3.641-3.732-1.627-4.5-1.626-4.5-.036-8.672-.035-8.673 5.787-27.827 5.786-27.828.955-1.25.955-1.25h22.637l.544.88.543.879-5.484 27.32-5.485 27.318v10.381l1.75 2.161 1.75 2.16 4 .927 4 .927 7.628.024 7.627.024 1.034-1.25 1.034-1.25 7.1-33c3.904-18.15 7.534-34.013 8.066-35.25l.968-2.25h23.043v2.327c0 1.28-4.314 22.54-9.588 47.245l-9.587 44.918-1.163.74-1.162.74-24-.122c-13.2-.066-25.125-.309-26.5-.54zm167.409-.688l-.53-1.378 9.668-45.372 9.667-45.372 1.085-1.334 1.086-1.334 31.057.361 31.058.362 3.582 1.601 3.582 1.602 2.153 2.737 2.153 2.737 1.024 3.634c.563 1.999 1.302 5.322 1.643 7.384l.619 3.75h-57.011l-1.02 1.25-1.018 1.25-6.604 31.715c-3.631 17.443-6.603 32.373-6.603 33.179 0 .805-.707 2.17-1.571 3.035l-1.572 1.571h-21.92zm78.052.314l-.658-1.064 2.667-10.752 2.668-10.751-5.933-20.654-5.933-20.653.53-.53c.293-.293 6.516-.532 13.83-.532h13.298l.923 1.75c.508.963 1.46 4.363 2.118 7.556l1.194 5.806.871-.306c.479-.168 9.455-12.906 19.947-28.306 10.491-15.4 19.823-28.562 20.738-29.25l1.661-1.25h29.832l-.521 1.359c-.287.747-14.852 20.434-32.366 43.75L643.11 98.723l-2.387 9.5c-1.312 5.225-2.786 10.288-3.276 11.25l-.89 1.75h-25.811zm-426.04-76.156c.361-2.354 1.427-7.43 2.368-11.28l1.711-7 13.25-.279 13.25-.279-.027 1.28c-.015.703-1.037 5.778-2.272 11.278l-2.245 10-13.346.28-13.346.28z" fill="#121b28"/></svg>