<svg height="24" id="svg8" version="1.1" viewBox="0 0 24 24" width="24" xmlns="http://www.w3.org/2000/svg" xmlns:cc="http://creativecommons.org/ns#" xmlns:dc="http://purl.org/dc/elements/1.1/" xmlns:rdf="http://www.w3.org/1999/02/22-rdf-syntax-ns#" xmlns:svg="http://www.w3.org/2000/svg">
  <defs id="defs2">
    <rect height="7.0346723" id="rect2504" width="7.9207187" x="-1.1008456" y="289.81766"/>
  </defs>
  <g id="g1769" style="stroke-width:1.01669" transform="matrix(0.98358049,0,0,0.98358049,-77.76606,40.305423)">
    <path d="M 55.564453,6.9824219 V 9.0332031 H 51.5 v 2.8671879 h -4.064453 v 2.822265 h -4.064453 v 6.617188 h -1.929688 c 0.03882,0.313006 -0.07693,0.781738 0.05664,1 h 21.060547 c -0.03885,-0.313006 0.07693,-0.781739 -0.05664,-1 H 60.628906 V 6.9824219 Z m 1,1.0019531 h 3.064453 v 13.34375 H 56.564453 Z M 52.5,10.033203 h 3.064453 V 21.328125 H 52.5 Z m -4.064453,2.869141 H 51.5 v 8.425781 h -3.064453 z m -4.064453,2.818359 h 3.064453 v 5.607422 h -3.064453 z" id="path1291" style="fill:#FFFFFF;stroke:none;" transform="matrix(1.0166936,0,0,1.0166936,38.396517,-40.97628)"/>
    <path d="m 57.597656,1.65625 v 4.5097656 1.3261719 l 0.998047,-0.056641 V 5.6757812 l 3.585938,-1.765625 z m 0.998047,1.6074219 1.318359,0.6464843 -1.318359,0.6484376 z" id="path1716" style="fill:#FFFFFF;stroke:none;" transform="matrix(1.0166936,0,0,1.0166936,38.396517,-40.97628)"/>
  </g>
</svg>
