<?xml version="1.0" ?>
<!DOCTYPE svg PUBLIC '-//W3C//DTD SVG 1.1//EN'  'http://www.w3.org/Graphics/SVG/1.1/DTD/svg11.dtd'>
<svg height="100%" style="fill-rule:evenodd;clip-rule:evenodd;stroke-linejoin:round;stroke-miterlimit:2;" version="1.1" viewBox="0 0 32 32" width="100%" xml:space="preserve" xmlns="http://www.w3.org/2000/svg" xmlns:serif="http://www.serif.com/" xmlns:xlink="http://www.w3.org/1999/xlink">
  <path fill="#5e63ff" d="M21.997,14l-13,-0c-1.657,-0 -3,1.343 -3,3l-0,9.916c-0,1.657 1.343,3 3,3c3.463,0 10.536,0 14,0c1.656,0 3,-1.343 3,-3l-0,-9.916c-0,-1.306 -0.835,-2.418 -2,-2.829l-0,-4.212c-0,-4.396 -3.564,-7.959 -7.959,-7.959l-0.082,0c-4.396,0 -7.959,3.563 -7.959,7.959c-0,0.353 -0,0.702 -0,1.041c-0,0.552 0.448,1 1,1c0.551,-0 1,-0.448 1,-1c-0,-0.339 -0,-0.688 -0,-1.041c-0,-3.291 2.667,-5.959 5.959,-5.959c-0,0 0.082,0 0.082,0c3.291,0 5.959,2.668 5.959,5.959l-0,4.041Zm2,3l-0,9.916c-0,0.552 -0.448,1 -1,1l-14,0c-0.553,0 -1,-0.448 -1,-1c-0,0 -0,-9.916 -0,-9.916c-0,-0.552 0.447,-1 1,-1l14,-0c0.552,-0 1,0.448 1,1Z"/>
  <path fill="#5e63ff" d="M14.995,23.786l-0,1.192c-0,0.552 0.448,1 1,1c0.551,0 1,-0.448 1,-1l-0,-1.19c1.165,-0.412 2.002,-1.524 2.002,-2.83c-0,-1.656 -1.345,-3 -3,-3c-1.656,0 -3,1.344 -3,3c-0,1.304 0.834,2.416 1.998,2.828Zm1.002,-3.828c0.551,0 1,0.448 1,1c-0,0.552 -0.449,1 -1,1c-0.552,0 -1,-0.448 -1,-1c-0,-0.552 0.448,-1 1,-1Z"/>
</svg>
